<svg xmlns="http://www.w3.org/2000/svg" viewBox="0 0 512 512"><path d="M470.395 290.722H41.605c-14.35 0-25.983-11.633-25.983-25.983v-17.478c0-14.35 11.633-25.983 25.983-25.983h428.79c14.35 0 25.983 11.633 25.983 25.983v17.478c0 14.35-11.633 25.983-25.983 25.983z" fill="#20ab6c"/><path d="M470.395 290.722H41.605c-14.35 0-25.983-11.633-25.983-25.983v-17.478c0-14.35 11.633-25.983 25.983-25.983h428.79c14.35 0 25.983 11.633 25.983 25.983v17.478c0 14.35-11.633 25.983-25.983 25.983z" opacity=".1"/><path d="M470.395 221.279H41.605c-12.493 0-22.923 8.818-25.414 20.569 2.547.579 5.388.884 8.522.884h462.574c3.134 0 5.975-.304 8.522-.884-2.491-11.751-12.921-20.569-25.414-20.569z" opacity=".1"/><path d="M256 221.279h231.287c66.696 0 1.257-137.717-231.287-137.717S-41.983 221.279 24.713 221.279H256z" fill="#20ab6c"/><path d="M507.28 182.566H4.72c-10.462 21.884-3.316 38.712 19.993 38.712h462.574c23.309.001 30.455-16.827 19.993-38.712z" opacity=".3" fill="#fff"/><path d="M256 290.722h231.287c66.696 0 1.257 137.717-231.287 137.717S-41.983 290.722 24.713 290.722H256z" fill="#20ab6c"/><path d="M507.28 329.434H4.72c-10.462-21.884-3.316-38.712 19.993-38.712h462.574c23.309 0 30.455 16.827 19.993 38.712z" opacity=".3" fill="#fff"/><g fill="#394049"><path d="M189.24 140.085a7.5 7.5 0 0 1-7.5-7.5v-11.736c0-4.142 3.357-7.5 7.5-7.5s7.5 3.358 7.5 7.5v11.736c0 4.143-3.357 7.5-7.5 7.5zM322.76 140.085a7.5 7.5 0 0 1-7.5-7.5v-11.736a7.5 7.5 0 0 1 15 0v11.736a7.5 7.5 0 0 1-7.5 7.5z"/></g><g fill="#fff"><path d="M198.474 161.508h-18.467c-4.143 0-7.5-3.358-7.5-7.5s3.357-7.5 7.5-7.5h18.467a7.5 7.5 0 0 1 0 15zM331.993 161.508h-18.468c-4.143 0-7.5-3.358-7.5-7.5s3.357-7.5 7.5-7.5h18.468a7.5 7.5 0 0 1 0 15z"/></g><path d="M266.781 150.867c-4.028 0-7.757-1.31-10.781-3.526a18.183 18.183 0 0 1-10.781 3.526c-10.08 0-18.281-8.201-18.281-18.281 0-4.142 3.357-7.5 7.5-7.5s7.5 3.358 7.5 7.5a3.285 3.285 0 0 0 3.281 3.281 3.284 3.284 0 0 0 3.281-3.281 7.5 7.5 0 0 1 7.5-7.5 7.5 7.5 0 0 1 7.5 7.5 3.285 3.285 0 0 0 3.281 3.281 3.284 3.284 0 0 0 3.281-3.281c0-4.142 3.357-7.5 7.5-7.5s7.5 3.358 7.5 7.5c.001 10.08-8.201 18.281-18.281 18.281z" fill="#394049"/></svg>